<svg width="25" height="24" viewBox="0 0 25 24" fill="black" xmlns="http://www.w3.org/2000/svg">
    <path d="M5.75 20.5H19.2477C19.6619 20.5 19.9977 20.8358 19.9977 21.25C19.9977 21.6297 19.7155 21.9435 19.3494 21.9932L19.2477 22H5.75C5.33579 22 5 21.6642 5 21.25C5 20.8703 5.28215 20.5565 5.64823 20.5069L5.75 20.5H19.2477H5.75ZM12.3834 2.00233L12.5 1.99561C13.0128 1.99561 13.4355 2.38165 13.4933 2.87898L13.5 2.99561V15.5856L16.7941 12.2928C17.1546 11.9324 17.7218 11.9047 18.1141 12.2098L18.2083 12.293C18.5687 12.6535 18.5964 13.2207 18.2913 13.613L18.2081 13.7072L13.2105 18.7038C12.8502 19.064 12.2833 19.0919 11.891 18.7873L11.7968 18.7042L6.79338 13.7076C6.40259 13.3173 6.40215 12.6842 6.79241 12.2934C7.15265 11.9327 7.71986 11.9045 8.11236 12.2093L8.20662 12.2924L11.5 15.5806V2.99561C11.5 2.48277 11.886 2.0601 12.3834 2.00233L12.5 1.99561L12.3834 2.00233Z" fill="#000"/>
    </svg>
    