<svg width="158" height="144" viewBox="0 0 158 144" fill="none" xmlns="http://www.w3.org/2000/svg">
<path d="M42.0557 77.408C54.8267 77.408 65.1797 67.055 65.1797 54.2839C65.1797 41.5129 54.8267 31.1599 42.0557 31.1599C29.2846 31.1599 18.9316 41.5129 18.9316 54.2839C18.9316 67.055 29.2846 77.408 42.0557 77.408Z" stroke="white" stroke-width="4" stroke-miterlimit="10"/>
<path d="M15.7971 94.966H67.5314C75.1452 94.966 81.3284 101.149 81.3284 108.763C81.3284 127.107 66.4354 142 48.0915 142H35.237C16.8931 141.997 2 127.104 2 108.76C2 101.146 8.18319 94.9629 15.7971 94.9629V94.966Z" stroke="white" stroke-width="4" stroke-miterlimit="10"/>
<path d="M155.165 11.2195V42.6298C155.165 47.7231 151.036 51.8493 145.945 51.8493H125.772L105.257 72.3637C104.613 73.0085 103.51 72.551 103.51 71.6392V51.8493H94.7791C89.6858 51.8493 85.5596 47.72 85.5596 42.6298V11.2195C85.5596 6.12622 89.6889 2 94.7791 2H145.942C151.036 2 155.162 6.12929 155.162 11.2195H155.165Z" stroke="white" stroke-width="4" stroke-miterlimit="10"/>
</svg>
