<svg width="95" height="141" viewBox="0 0 95 141" fill="none" xmlns="http://www.w3.org/2000/svg">
<path d="M88.7645 113.785H6.23519C3.98515 113.785 2.16113 115.611 2.16113 117.864V134.756C2.16113 137.009 3.98515 138.836 6.23519 138.836H88.7645C91.0145 138.836 92.8385 137.009 92.8385 134.756V117.864C92.8385 115.611 91.0145 113.785 88.7645 113.785Z" stroke="white" stroke-width="4" stroke-miterlimit="10"/>
<path d="M9.33691 48.5764V40.6552C9.33691 19.4024 26.5517 2.16431 47.7757 2.16431C69.0104 2.16431 86.2144 19.4024 86.2144 40.6552V113.774H9.33691V67.4918" stroke="white" stroke-width="4" stroke-miterlimit="10" stroke-linecap="round"/>
<path d="M48.6943 41.5857V113.785" stroke="white" stroke-width="4" stroke-miterlimit="10"/>
<path d="M49.3207 76.2135C49.3207 76.2135 45.5709 49.3228 76.4775 49.5068C76.4775 49.5068 76.5423 86.5261 49.3207 76.2135Z" stroke="white" stroke-width="4" stroke-miterlimit="10"/>
<path d="M48.2623 87.1213C48.2623 87.1213 49.1808 59.9818 18.4688 63.4012C18.4688 63.4012 22.2618 100.226 48.2623 87.1213Z" stroke="white" stroke-width="4" stroke-miterlimit="10"/>
<path d="M86.2249 99.4143H64.5146" stroke="white" stroke-width="4" stroke-miterlimit="10" stroke-linecap="round"/>
<path d="M9.33691 99.4143H26.9947" stroke="white" stroke-width="4" stroke-miterlimit="10" stroke-linecap="round"/>
<path d="M48.6946 42.3649C54.3346 42.3649 58.9067 37.7865 58.9067 32.1389C58.9067 26.4912 54.3346 21.9128 48.6946 21.9128C43.0546 21.9128 38.4824 26.4912 38.4824 32.1389C38.4824 37.7865 43.0546 42.3649 48.6946 42.3649Z" stroke="white" stroke-width="4" stroke-miterlimit="10"/>
</svg>
