<svg width="137" height="137" viewBox="0 0 137 137" fill="none" xmlns="http://www.w3.org/2000/svg">
<path d="M2.98145 126.048H134.222C134.222 130.99 130.209 135 125.264 135H11.9396C6.99452 135 2.98145 130.99 2.98145 126.048Z" stroke="white" stroke-width="4" stroke-miterlimit="10"/>
<path d="M82.2631 29.3682H55.6123V56.1115H82.2631V29.3682Z" stroke="white" stroke-width="4" stroke-miterlimit="10"/>
<path d="M82.2631 56.1113H55.6123V100.199H82.2631V56.1113Z" stroke="white" stroke-width="4" stroke-miterlimit="10"/>
<path d="M99.9553 100.646L82.2627 91.9181V56.1113L99.9553 69.0907V100.646Z" stroke="white" stroke-width="4" stroke-miterlimit="10"/>
<path d="M37.9199 100.646L55.6125 91.9181V56.1113L37.9199 69.0907V100.646Z" stroke="white" stroke-width="4" stroke-miterlimit="10"/>
<path d="M82.2083 29.368C82.2083 29.368 83.467 11.4077 68.9103 3.07178C54.3536 11.4077 55.6123 29.368 55.6123 29.368" stroke="white" stroke-width="4" stroke-miterlimit="10"/>
<path d="M82.263 47.3809H126.047V112.843V125.711H11.8281V112.843V47.3809H55.6123" stroke="white" stroke-width="4" stroke-miterlimit="10"/>
<path d="M11.8281 112.843C11.8281 112.843 13.5079 97.6241 29.5207 100.646C29.5207 100.646 31.6479 94.1552 37.9197 92.0295" stroke="white" stroke-width="4" stroke-miterlimit="10"/>
<path d="M126.048 112.843C126.048 112.843 124.368 97.6241 108.355 100.646C108.355 100.646 106.228 94.1552 99.9561 92.0295" stroke="white" stroke-width="4" stroke-miterlimit="10"/>
<path d="M68.882 91.322C71.1692 91.322 73.0244 93.1781 73.0244 95.4615V100.199H64.7373V95.4615C64.7373 93.1759 66.5947 91.322 68.8798 91.322H68.882Z" stroke="white" stroke-width="4" stroke-miterlimit="10"/>
<path d="M73.0244 97.5869V108.853" stroke="white" stroke-width="4" stroke-miterlimit="10" stroke-linecap="round"/>
<path d="M64.5332 107.211V118.475" stroke="white" stroke-width="4" stroke-miterlimit="10" stroke-linecap="round"/>
<path d="M68.882 47.0849C71.4181 47.0849 73.4741 45.0304 73.4741 42.4962C73.4741 39.9619 71.4181 37.9075 68.882 37.9075C66.346 37.9075 64.29 39.9619 64.29 42.4962C64.29 45.0304 66.346 47.0849 68.882 47.0849Z" stroke="white" stroke-width="4" stroke-miterlimit="10"/>
</svg>
