<svg width="24" height="25" viewBox="0 0 24 25" fill="none" xmlns="http://www.w3.org/2000/svg">
<path d="M11.9996 2.5127C17.5233 2.5127 22.0011 6.99054 22.0011 12.5142C22.0011 18.0379 17.5233 22.5158 11.9996 22.5158C6.47589 22.5158 1.99805 18.0379 1.99805 12.5142C1.99805 6.99054 6.47589 2.5127 11.9996 2.5127ZM11.9958 10.7633C11.483 10.7636 11.0605 11.1499 11.0031 11.6473L10.9964 11.7639L11 17.2655L11.0068 17.3821C11.0649 17.8794 11.4879 18.2652 12.0007 18.2649C12.5135 18.2645 12.936 17.8782 12.9934 17.3808L13 17.2642L12.9964 11.7626L12.9896 11.646C12.9316 11.1487 12.5086 10.7629 11.9958 10.7633ZM12 7.01373C11.3089 7.01373 10.7485 7.57405 10.7485 8.26525C10.7485 8.95644 11.3089 9.51677 12 9.51677C12.6912 9.51677 13.2516 8.95644 13.2516 8.26525C13.2516 7.57405 12.6912 7.01373 12 7.01373Z" fill="#FEFEFE"/>
</svg>
