<svg width="130" height="86" viewBox="0 0 130 86" fill="none" xmlns="http://www.w3.org/2000/svg">
<g clip-path="url(#clip0_328_603)">
<path d="M18.7834 48.4377C18.3547 48.1247 18.0149 47.8613 17.6593 47.6214C16.7627 47.0216 15.8607 46.4322 14.8386 45.7593C14.0831 47.9578 13.3668 50.0468 12.6453 52.1358C11.8714 54.3838 10.8467 54.8559 8.69516 53.9352C6.29792 52.9077 3.89284 51.8958 1.51913 50.8161C-0.0128085 50.1198 -0.444155 48.5942 0.491736 47.4101C1.30476 46.3826 2.33999 46.4087 3.43796 46.8755C5.23132 47.637 7.02206 48.4064 8.94351 49.2279C9.8428 46.6617 10.7107 44.218 11.5577 41.7691C14.619 32.9073 17.6541 24.0376 20.7546 15.1888C21.1284 14.1248 21.0447 13.6345 19.9311 13.1416C14.0831 10.5519 8.2795 7.8709 2.46286 5.22122C2.06811 5.04127 1.66291 4.87436 1.28385 4.66311C0.149273 4.0372 -0.271616 2.89231 0.212015 1.79697C0.69826 0.688587 1.95831 0.190467 3.17131 0.730314C6.66653 2.28726 10.1434 3.88594 13.6282 5.46897C16.9927 6.99984 20.365 8.52028 23.7217 10.0694C26.2261 11.2247 26.3673 11.5299 25.8105 14.3386C27.7136 14.6725 29.6168 15.0089 31.5199 15.3401C33.8335 15.7417 36.1523 16.1173 38.4633 16.5476C40.0188 16.8371 40.8266 17.8594 40.6017 19.1268C40.3665 20.4386 39.326 21.0932 37.7365 20.8324C33.7446 20.1779 29.7553 19.5233 25.7791 18.7852C24.6445 18.574 24.0955 18.7826 23.7034 19.9588C21.4316 26.7499 19.0945 33.5202 16.7104 40.2722C16.3784 41.2136 16.5457 41.6961 17.3639 42.1447C18.0096 42.4994 18.6475 42.8984 19.2069 43.373C20.9062 44.8126 22.5427 45.3368 24.9347 44.617C29.256 43.3183 32.1343 45.4698 34.6073 49.5878C35.1798 50.5397 35.6269 51.0535 36.8529 51.2308C40.7063 51.7889 43.3885 54.0526 45.0799 57.5395C45.255 57.8993 45.7518 58.3036 46.1256 58.3349C51.1187 58.7469 54.8519 62.1816 55.6021 67.2098C55.7407 68.146 56.0727 68.5581 57.0321 68.8449C58.4699 69.2753 59.9182 69.8699 61.1704 70.6862C63.6749 72.3214 64.5349 75.0076 63.7088 77.8867C63.518 78.5465 63.2618 79.1881 63.0422 79.8244C65.7322 81.8065 67.74 81.238 68.8432 78.2258C70.1163 74.7494 70.43 74.705 73.9331 76.1133C75.7604 76.8488 77.7315 77.4277 79.6817 77.6129C82.2489 77.858 84.667 75.477 84.8317 72.8951C84.8527 72.5795 84.5076 72.1258 84.2069 71.9276C82.3142 70.6888 80.3667 69.5361 78.4792 68.2868C77.3106 67.5149 77.0544 66.2552 77.7341 65.2355C78.4191 64.208 79.6399 63.9628 80.8477 64.6201C81.1901 64.8078 81.5195 65.0217 81.8515 65.2303C83.7312 66.4117 85.569 67.6635 87.4983 68.7563C89.8537 70.0942 92.3502 69.9872 94.7762 68.9571C96.086 68.4016 96.9434 66.5656 96.6271 65.2355C96.533 64.8417 96.1121 64.4662 95.7513 64.208C93.5188 62.6197 91.2601 61.068 89.0093 59.5032C88.7243 59.305 88.4289 59.1173 88.1597 58.8982C87.1035 58.0402 86.8708 56.7701 87.5819 55.7947C88.2904 54.822 89.6158 54.5899 90.7242 55.3436C93.3123 57.1039 95.8977 58.8721 98.4309 60.7107C100.81 62.4398 103.495 62.6432 106.271 62.4789C107.23 62.4215 107.803 61.8608 108.104 60.9011C108.969 58.1523 108.483 56.7779 105.996 55.3592C95.1553 49.1679 84.3141 42.9818 73.4729 36.7958C73.2089 36.6445 72.9318 36.5089 72.6861 36.3289C71.6744 35.5935 71.3868 34.326 71.9907 33.335C72.6259 32.297 73.7971 31.945 74.9474 32.5839C77.9877 34.2739 80.9993 36.0186 84.0213 37.7451C91.3124 41.9074 98.6008 46.0723 105.892 50.2293C106.224 50.4171 106.579 50.5658 107.019 50.7796C107.314 49.5304 107.711 48.409 107.824 47.2589C108.015 45.2794 109.011 44.1763 110.945 43.8346C111.316 43.7694 111.669 43.5843 112.195 43.3965C109.1 35.1866 106.033 27.0524 102.922 18.7982C100.643 19.3746 98.4623 19.9249 96.2794 20.4752C95.6049 20.6447 94.9331 20.8324 94.2534 20.9837C92.2431 21.4323 91.1895 20.5899 91.1294 18.5088C91.1242 18.2949 91.1111 18.0811 91.0928 17.7264C88.476 17.3665 85.8644 16.9961 83.2501 16.6545C77.5538 15.9086 71.86 15.1628 66.1584 14.4664C65.6146 14.4012 64.9375 14.5316 64.48 14.8211C59.0634 18.2167 53.6702 21.6487 48.2928 25.1069C47.8222 25.4094 47.3124 25.8867 47.1425 26.39C45.7831 30.4115 44.5022 34.459 43.1846 38.5405C45.2655 40.0088 48.8156 39.0855 50.46 37.6929C52.1383 36.2716 53.2755 34.4903 53.9918 32.4613C54.4885 31.053 55.3747 30.3854 56.8308 30.1794C59.0686 29.8638 61.2881 29.4126 63.518 29.024C65.1205 28.7424 66.3126 29.4205 66.5296 30.7296C66.7466 32.0415 65.8708 33.0403 64.2631 33.335C62.5089 33.6558 60.7652 34.0574 59.0006 34.2895C58.1771 34.399 57.8268 34.772 57.4974 35.4657C55.8845 38.8691 53.5866 41.6283 49.9162 42.9584C46.6693 44.1345 43.4931 43.8946 40.458 42.2516C37.8856 40.8563 37.6712 39.3359 38.8058 36.7227C40.2514 33.3898 41.5115 29.9342 42.4108 26.4213C43.0696 23.8472 44.3662 22.2303 46.6092 20.8846C52.052 17.6194 57.3641 14.1352 62.6971 10.6875C63.8369 9.94944 64.9454 9.79036 66.2734 9.97292C73.9461 11.0239 81.6267 12.0045 89.3047 13.0086C90.685 13.1885 92.0705 13.3398 93.4456 13.551C94.7736 13.7545 95.5004 14.589 95.6546 16.0703C97.5421 15.5983 99.3302 15.1523 101.178 14.6907C101.131 14.3491 101.124 14.0961 101.058 13.8588C100.577 12.1349 100.896 11.3395 102.509 10.6223C110.302 7.16675 118.1 3.72686 125.906 0.297393C127.334 -0.328517 128.586 0.0678926 129.138 1.23104C129.726 2.46982 129.195 3.64601 127.632 4.33973C120.715 7.40929 113.787 10.4554 106.864 13.5119C106.553 13.6501 106.258 13.8144 105.858 14.0179C106.394 15.4835 106.898 16.9023 107.429 18.3132C110.54 26.5569 113.638 34.8033 116.785 43.0314C117.405 44.6509 118.231 46.1896 118.916 47.7857C119.235 48.5316 119.692 48.5524 120.375 48.3334C122.526 47.6344 124.688 46.9668 126.855 46.3226C128.366 45.8741 129.488 46.4061 129.89 47.697C130.288 48.9671 129.639 50.0337 128.105 50.5188C125.161 51.4499 122.212 52.3627 119.256 53.2572C117.606 53.7553 116.746 53.3641 115.978 51.8124C115.418 50.6857 114.927 49.5226 114.333 48.4116C114.169 48.1039 113.695 47.6918 113.457 47.744C112.966 47.8535 112.252 48.156 112.135 48.5342C111.661 50.065 111.34 51.6455 111.063 53.2259C111.003 53.5701 111.298 54.0239 111.526 54.3656C113.423 57.1952 113.282 61.8739 111.175 64.5601C109.832 66.2735 107.928 66.8629 105.874 66.9281C104.282 66.9777 102.682 66.8055 101.014 66.7299C100.512 69.7838 99.0217 72.2223 96.0285 73.1924C94.175 73.7922 92.1176 73.7975 90.1465 73.9931C89.5556 74.053 89.1191 74.0009 88.889 74.7389C86.7976 81.3944 81.3888 83.5512 74.5056 81.1441C73.9409 80.9459 73.3788 80.732 72.7802 80.5129C72.5789 80.8494 72.4168 81.0997 72.2704 81.3579C70.132 85.1473 66.642 86.3496 62.6056 84.6648C62.0044 84.4145 61.3743 84.1719 60.8646 83.7885C60.2162 83.3009 59.7718 83.5121 59.113 83.8094C57.3432 84.61 55.5499 85.4941 53.6702 85.8906C50.7266 86.5113 47.4405 84.5788 45.8563 81.7804C45.6106 81.3475 45.0172 80.8468 44.5675 80.8337C39.8384 80.6903 36.8582 78.2127 35.2478 73.9513C34.8818 72.9812 34.4348 72.663 33.3969 72.5978C30.0246 72.3866 26.9686 71.3825 25.583 67.9426C25.0157 66.5343 24.872 64.9252 24.723 63.3891C24.6419 62.5572 24.5086 62.0277 23.6459 61.7435C22.9531 61.514 22.3022 61.1254 21.6748 60.7394C17.4502 58.1288 16.2633 54.3499 18.2135 49.7651C18.3809 49.3687 18.5586 48.9775 18.7887 48.4455L18.7834 48.4377ZM44.91 76.395C45.689 76.5645 46.2432 76.1916 46.787 75.404C47.8667 73.8418 49.1529 72.4205 50.2796 70.887C50.724 70.2819 51.1736 69.5595 51.2756 68.8397C51.7096 65.7284 48.4235 62.4268 45.3021 62.7788C44.9832 62.8153 44.6041 63.0761 44.4054 63.3448C42.7166 65.6372 41.054 67.9504 39.4123 70.2767C39.1874 70.5949 38.9443 71.0565 39.0071 71.3955C39.5926 74.486 41.7389 76.3167 44.91 76.395ZM29.0809 63.1048C29.1253 66.1718 29.8076 67.3949 31.8049 67.9035C32.7199 68.1382 33.695 68.1747 34.6439 68.2243C34.9498 68.2399 35.3628 68.1017 35.5667 67.8852C37.5954 65.7337 39.6868 63.6056 40.6802 60.7368C40.8867 60.137 41.0174 59.1564 40.688 58.7939C39.6711 57.662 38.4999 56.6188 37.2242 55.7895C36.385 55.2418 35.4073 55.5783 34.6335 56.3607C33.1956 57.8107 31.75 59.2607 30.2076 60.596C29.324 61.3601 28.9266 62.1894 29.0782 63.1022L29.0809 63.1048ZM26.9032 48.6985C26.8457 48.5811 26.7882 48.4664 26.7333 48.349C25.4576 48.988 23.821 49.3218 22.9714 50.3232C20.4618 53.2702 22.1741 57.3073 26.0275 57.928C26.3333 57.9776 26.7699 57.7716 27.0182 57.5473C28.3018 56.3789 29.554 55.1766 30.7906 53.9587C31.018 53.7344 31.2402 53.3928 31.2559 53.0929C31.3395 51.4707 28.5868 48.7219 26.9058 48.7011L26.9032 48.6985ZM52.0128 81.5822C54.2401 81.6292 57.5785 79.9627 58.5275 78.6457C60.3888 76.0559 59.8372 74.5042 56.8151 73.3202C55.3878 72.7595 54.2846 72.916 53.3617 74.0974C52.1906 75.5943 51.0377 77.107 49.9319 78.6535C49.7463 78.9143 49.66 79.5428 49.8221 79.7019C50.6194 80.4869 51.5161 81.1702 52.0128 81.5848V81.5822Z" fill="white"/>
</g>
<defs>
<clipPath id="clip0_328_603">
<rect width="130" height="86" fill="white"/>
</clipPath>
</defs>
</svg>
