<svg width="147" height="163" viewBox="0 0 147 163" fill="none" xmlns="http://www.w3.org/2000/svg">
<g clip-path="url(#clip0_219_1472)">
<path d="M112.235 50.5847C106.786 45.3064 100.265 41.1294 93.0312 38.4075" stroke="white" stroke-width="4" stroke-miterlimit="10"/>
<path d="M128.844 84.2599C128.369 80.0875 127.432 76.0582 126.088 72.217" stroke="white" stroke-width="4" stroke-miterlimit="10"/>
<path d="M90.4141 143.79C98.1047 141.327 105.069 137.244 110.904 131.948" stroke="white" stroke-width="4" stroke-miterlimit="10"/>
<path d="M35.791 131.948C41.6262 137.249 48.5908 141.327 56.2814 143.79" stroke="white" stroke-width="4" stroke-miterlimit="10"/>
<path d="M20.7188 71.8992C19.2892 75.9015 18.3077 80.1098 17.8281 84.4748" stroke="white" stroke-width="4" stroke-miterlimit="10"/>
<path d="M53.8921 38.3225C46.6093 41.0266 40.0481 45.2035 34.5625 50.4863" stroke="white" stroke-width="4" stroke-miterlimit="10"/>
<path d="M73.3475 19.9312C78.3622 19.9312 82.4275 15.8704 82.4275 10.861C82.4275 5.85165 78.3622 1.79077 73.3475 1.79077C68.3328 1.79077 64.2676 5.85165 64.2676 10.861C64.2676 15.8704 68.3328 19.9312 73.3475 19.9312Z" stroke="white" stroke-width="4" stroke-miterlimit="10"/>
<path d="M68.6951 25.908H78.0036C86.2993 25.908 93.0308 32.6368 93.0308 40.9191V49.8729H53.668V40.9191C53.668 32.6323 60.404 25.908 68.6951 25.908Z" stroke="white" stroke-width="4" stroke-miterlimit="10"/>
<path d="M21.4715 41.9532C26.4863 41.9532 30.5515 37.8923 30.5515 32.883C30.5515 27.8736 26.4863 23.8127 21.4715 23.8127C16.4568 23.8127 12.3916 27.8736 12.3916 32.883C12.3916 37.8923 16.4568 41.9532 21.4715 41.9532Z" stroke="white" stroke-width="4" stroke-miterlimit="10"/>
<path d="M16.8201 47.9299H26.1286C34.4243 47.9299 41.1558 54.6587 41.1558 62.941V71.8949H1.79297V62.941C1.79297 54.6543 8.52897 47.9299 16.8201 47.9299Z" stroke="white" stroke-width="4" stroke-miterlimit="10"/>
<path d="M21.4715 101.845C26.4863 101.845 30.5515 97.7844 30.5515 92.7751C30.5515 87.7657 26.4863 83.7048 21.4715 83.7048C16.4568 83.7048 12.3916 87.7657 12.3916 92.7751C12.3916 97.7844 16.4568 101.845 21.4715 101.845Z" stroke="white" stroke-width="4" stroke-miterlimit="10"/>
<path d="M16.8201 107.826H26.1286C34.4243 107.826 41.1558 114.555 41.1558 122.838V131.791H1.79297V122.838C1.79297 114.551 8.52897 107.826 16.8201 107.826Z" stroke="white" stroke-width="4" stroke-miterlimit="10"/>
<path d="M73.3475 131.263C78.3622 131.263 82.4275 127.202 82.4275 122.193C82.4275 117.184 78.3622 113.123 73.3475 113.123C68.3328 113.123 64.2676 117.184 64.2676 122.193C64.2676 127.202 68.3328 131.263 73.3475 131.263Z" stroke="white" stroke-width="4" stroke-miterlimit="10"/>
<path d="M68.6951 137.24H78.0036C86.2993 137.24 93.0308 143.969 93.0308 152.251V161.205H53.668V152.251C53.668 143.964 60.404 137.24 68.6951 137.24Z" stroke="white" stroke-width="4" stroke-miterlimit="10"/>
<path d="M125.528 41.877C130.543 41.877 134.608 37.8162 134.608 32.8068C134.608 27.7975 130.543 23.7366 125.528 23.7366C120.513 23.7366 116.448 27.7975 116.448 32.8068C116.448 37.8162 120.513 41.877 125.528 41.877Z" stroke="white" stroke-width="4" stroke-miterlimit="10"/>
<path d="M120.872 47.8538H130.18C138.476 47.8538 145.208 54.5826 145.208 62.8649V71.8187H105.845V62.8649C105.845 54.5781 112.581 47.8538 120.872 47.8538Z" stroke="white" stroke-width="4" stroke-miterlimit="10"/>
<path d="M125.528 101.769C130.543 101.769 134.608 97.7082 134.608 92.6989C134.608 87.6895 130.543 83.6287 125.528 83.6287C120.513 83.6287 116.448 87.6895 116.448 92.6989C116.448 97.7082 120.513 101.769 125.528 101.769Z" stroke="white" stroke-width="4" stroke-miterlimit="10"/>
<path d="M120.872 107.75H130.18C138.476 107.75 145.208 114.479 145.208 122.762V131.715H105.845V122.762C105.845 114.475 112.581 107.75 120.872 107.75Z" stroke="white" stroke-width="4" stroke-miterlimit="10"/>
<path d="M47.9453 101.845L63.2414 86.5657L71.5146 94.2078L92.1439 73.6006" stroke="white" stroke-width="4" stroke-miterlimit="10"/>
<path d="M80.6709 72.5842H93.1435V85.3837" stroke="white" stroke-width="4" stroke-miterlimit="10"/>
</g>
<defs>
<clipPath id="clip0_219_1472">
<rect width="147" height="163" fill="white"/>
</clipPath>
</defs>
</svg>
