<svg width="157" height="151" viewBox="0 0 157 151" fill="none" xmlns="http://www.w3.org/2000/svg">
<g clip-path="url(#clip0_219_1469)">
<path d="M24.3668 121.646C21.5614 121.491 19.0567 121.496 16.5869 121.186C8.86718 120.228 2.81562 113.628 2.80059 105.875C2.73546 76.5858 2.73546 47.3014 2.81061 18.012C2.83065 9.69492 10.2298 2.7657 18.8513 2.76071C55.4312 2.74074 92.0111 2.73575 128.591 2.77069C132.999 2.77069 137.493 2.55603 141.801 3.29987C149.035 4.54793 154.195 11.1327 154.205 18.4713C154.25 47.4262 154.265 76.3811 154.215 105.336C154.2 114.741 147.196 121.391 137.212 121.446C120.175 121.541 103.137 121.486 86.0998 121.496C78.2498 121.496 70.3948 121.636 62.5498 121.421C59.8246 121.346 58.0712 122.32 56.2728 124.152C48.9738 131.585 41.6148 138.959 34.1204 146.192C32.9332 147.336 30.9694 148.214 29.3413 148.254C26.3005 148.324 24.3918 145.848 24.3818 142.543C24.3568 135.649 24.3718 128.755 24.3718 121.646H24.3668ZM67.6245 83.6199C80.6243 83.6199 93.2284 83.6648 105.827 83.5749C107.941 83.56 109.374 82.0573 109.95 80.0854C112.049 72.9165 114.118 65.7427 116.057 58.5289C117.014 54.9794 115.411 52.3985 111.779 51.7345C109.344 51.2902 106.809 51.3301 104.315 51.2702C101.184 51.2003 98.0476 51.2552 94.6461 51.2552C94.6461 45.8786 94.576 40.9014 94.6761 35.9241C94.7313 33.2283 93.9047 31.2264 91.2847 30.173C88.8951 29.2145 87.0666 29.7188 84.8874 32.13C79.5773 37.9959 74.2571 43.8568 69.0722 49.8325C68.2456 50.786 67.7096 52.3186 67.6896 53.5966C67.5643 61.664 67.6245 69.7365 67.6245 77.8039C67.6245 79.6211 67.6245 81.4383 67.6245 83.6149V83.6199ZM40.7782 51.38V83.4751H56.6986V51.38H40.7782Z" stroke="white" stroke-width="4" stroke-miterlimit="10"/>
</g>
<defs>
<clipPath id="clip0_219_1469">
<rect width="157" height="151" fill="white"/>
</clipPath>
</defs>
</svg>
