<svg width="168" height="139" viewBox="0 0 168 139" fill="none" xmlns="http://www.w3.org/2000/svg">
<g clip-path="url(#clip0_219_1447)">
<path d="M104.186 72.7765C105.675 74.8694 105.077 77.2723 105.106 79.559C105.113 80.1242 105.003 80.7443 105.003 81.3354C104.993 98.9377 104.987 116.54 105.003 134.142C105.003 136.5 104.871 137.039 102.087 137.043C90.566 137.055 79.0486 137.043 67.528 137.062C66.7173 137.062 65.9583 136.884 65.1832 136.7C64.6955 135.634 64.7827 134.478 64.7827 133.332C64.7827 116.269 64.7956 80.6022 65.1089 79.8788C65.2058 79.6591 65.4545 79.4169 65.4125 79.236C64.0366 73.5064 64.8053 60.2288 64.7924 59.3697C64.773 57.6967 65.2607 57.3608 66.8788 57.0733C68.8651 56.718 99.942 56.928 102.087 56.999C104.599 57.083 105.119 57.0184 105.152 60.0156C105.181 62.9224 105.106 70.2928 104.813 70.9872C104.444 71.856 104.095 72.6053 102.926 73.0187C101.06 73.6808 95.8402 79.2974 93.6924 79.2748C84.326 79.1779 74.9597 79.2328 65.5933 79.2328" stroke="white" stroke-width="4" stroke-linecap="round" stroke-linejoin="round"/>
<path d="M114.199 113.795C113.398 114.967 113.204 116.269 113.213 117.671C113.252 123 113.23 128.329 113.23 133.658C113.23 134.666 113.149 135.683 113.714 136.72C114.641 137.136 115.797 137.052 116.944 137.052C127.925 137.052 138.906 137.052 149.888 137.052C150.895 137.052 151.913 137.133 152.94 136.571C153.366 135.641 153.279 134.485 153.279 133.338C153.279 130.002 153.285 126.662 153.276 123.326C153.269 121.388 153.082 119.476 153.182 117.506C153.463 111.922 153.266 106.315 153.295 100.717C153.298 99.9068 153.117 99.1478 152.933 98.3662C151.603 97.7881 150.169 98.0012 148.757 97.9754C147.659 97.956 146.548 98.0691 145.518 97.5039C145.308 97.3908 145.078 97.2519 144.704 97.4586C143.402 98.1756 141.939 97.9689 140.521 97.9722C134.924 97.9754 129.317 98.1595 123.73 97.8947C121.017 97.7655 118.346 98.0529 115.652 97.9915C113.63 97.9463 113.246 98.3727 113.236 100.398C113.217 103.628 113.159 106.861 113.259 110.087C113.314 111.792 113.601 113.401 115.633 114.176C117.344 114.828 118.426 116.469 119.473 117.881C120.891 119.789 122.544 120.342 124.857 120.313C134.062 120.193 143.267 120.264 152.471 120.264" stroke="white" stroke-width="4" stroke-linecap="round" stroke-linejoin="round"/>
<path d="M120.82 28.5287C119.98 28.2251 119.085 28.1476 118.226 27.9248C115.888 27.324 113.562 29.2942 113.559 31.7585C113.546 40.1559 113.578 48.5534 113.543 56.9508C113.527 60.4518 113.01 63.9432 113.239 67.4475C113.523 71.7657 113.808 76.0872 115.329 80.2052C116.285 82.789 117.461 85.221 119.851 86.8294C120.539 87.2913 120.681 87.9695 120.671 88.7641C120.639 91.6159 120.658 94.4711 120.658 97.323" stroke="white" stroke-width="4" stroke-linecap="round" stroke-linejoin="round"/>
<path d="M97.7265 56.4662C97.7265 53.5594 97.733 50.6526 97.7233 47.7458C97.7233 47.0159 97.8428 46.4765 98.5146 45.9404C102.119 43.0691 103.375 38.9479 104.173 34.662C105.045 29.9659 104.958 25.2214 104.884 20.4542C104.729 10.7681 104.838 1.07559 104.838 -8.61374C104.838 -11.8952 102.678 -13.5876 99.5093 -12.8189C98.8731 -12.6639 98.2207 -12.5961 97.5747 -12.4895" stroke="white" stroke-width="4" stroke-linecap="round" stroke-linejoin="round"/>
<path d="M47.1807 56.6278C48.0204 56.3242 48.9151 56.2467 49.7742 56.0239C52.1158 55.4231 54.4412 57.4062 54.4444 59.8576C54.4509 65.7261 54.5413 71.5946 54.4186 77.4599C54.2959 83.4963 54.916 89.5166 54.7416 95.5466C54.6188 99.8229 54.1279 104.06 52.6907 108.149C51.7928 110.707 50.6494 113.088 48.4467 114.731C47.4713 115.458 47.3228 116.282 47.3292 117.348C47.3551 123.268 47.3422 129.191 47.3422 135.111" stroke="white" stroke-width="4" stroke-linecap="round" stroke-linejoin="round"/>
<path d="M17.1439 79.2362C15.4127 78.3706 14.531 76.7945 13.5621 75.2184C12.2088 73.0124 10.6876 70.9228 7.94548 70.1767C6.1368 69.6858 3.44317 70.3349 2.27722 71.6398C1.74431 72.2373 1.95747 72.8735 2.14803 73.4194C3.28814 76.6653 4.51223 79.8789 5.67495 83.1184C6.82798 86.3385 8.10051 89.5327 9.00807 92.8239C9.51515 94.6648 9.39242 96.6835 9.55391 98.6213C9.93502 103.149 10.9363 107.494 13.4296 111.379C15.1834 114.111 17.5767 115.859 20.8517 116.411C22.7475 116.731 22.9542 117.141 22.9542 119.13C22.9542 124.405 22.9542 129.682 22.9542 134.956" stroke="white" stroke-width="4" stroke-linecap="round" stroke-linejoin="round"/>
<path d="M85.4536 34.6653C85.3147 32.2429 85.7217 29.8077 85.1436 27.395C84.3716 24.1814 82.4919 21.8883 79.6465 20.2831C77.0271 18.8071 74.1946 18.1288 71.2426 17.8801C69.5986 17.7445 68.7751 17.1437 68.5038 15.6064C68.3067 14.4824 68.184 13.3455 68.0096 12.2183C67.8223 11.0072 67.5057 9.88643 66.2397 9.30184C65.4193 8.92396 65.0382 8.11328 64.6248 7.37044C63.6268 5.57145 62.4059 3.95333 60.917 2.51931C58.9178 0.594367 54.9064 0.620203 53.1332 2.17696C52.497 2.73571 52.3161 3.1362 52.4776 3.98886C52.9685 6.58237 54.1312 8.93688 54.9807 11.3947C56.3759 15.432 57.8487 19.4433 59.1826 23.5064C59.6348 24.8791 59.5121 26.2065 59.6251 27.5598C60.0514 32.5821 60.7361 37.5269 63.4847 41.9387C65.274 44.81 67.6026 46.7898 71.0811 47.2872C72.9641 47.5553 73.1805 47.9752 73.1837 50.0067C73.1869 52.1061 73.1837 54.2054 73.1837 56.3048" stroke="white" stroke-width="4" stroke-linecap="round" stroke-linejoin="round"/>
<path d="M132.931 75.6835C131.717 68.1516 134.326 61.6113 142.785 59.5508C144.587 59.1115 146.448 58.9145 148.269 58.5495C148.925 58.4171 149.471 58.1781 149.597 57.277C149.862 55.4296 150.33 53.6144 150.682 51.7799C150.75 51.4311 150.621 51.0177 151.021 50.8174C153.149 49.7548 153.921 47.5683 155.239 45.821C156.57 44.0575 158.065 42.4168 160.387 41.9323C162.448 41.506 164.176 42.2876 165.704 43.5601C166.369 44.1124 165.959 44.823 165.723 45.4851C164.15 49.8937 162.59 54.3088 161.037 58.7272C160.32 60.7684 159.577 62.7999 158.953 64.867C158.466 66.4851 158.695 68.2066 158.524 69.8763C158.143 73.6067 157.532 77.2467 156.014 80.6832C154.244 84.6849 151.454 87.5884 146.977 88.4153C145.508 88.6866 144.946 89.3648 145.017 90.8602C145.12 92.9531 145.043 95.0589 145.043 97.1583" stroke="white" stroke-width="4" stroke-linecap="round" stroke-linejoin="round"/>
<path d="M27.3981 8.34255C27.6306 7.99696 27.5047 7.52542 27.3012 7.39946C24.9951 5.96543 23.7291 3.4236 21.3584 2.01542C17.5021 -0.277723 14.0527 -0.0710158 10.8778 2.25442C5.6617 6.06879 5.42592 10.6034 8.47483 15.9035C11.5205 21.1971 16.1294 25.1212 21.0225 28.6869C22.6762 29.8916 24.3363 31.0899 26.0384 32.2267C26.694 32.666 27.4465 33.1182 28.2863 32.5659C34.8459 28.238 41.1731 23.6258 45.698 17.0436C47.1708 14.899 48.1849 12.509 48.3367 9.79918C48.5337 6.27549 45.1522 1.73766 40.7209 0.755807C37.0971 -0.0451773 34.1192 1.14984 31.5031 3.64645C30.208 4.88346 29.21 6.46605 27.4788 7.21213" stroke="white" stroke-width="4" stroke-linecap="round" stroke-linejoin="round"/>
<path d="M137.13 -14.2659C135.408 -15.3221 134.223 -16.9563 132.776 -18.3096C130.079 -20.8288 126.995 -21.8559 123.407 -20.7093C119.744 -19.5401 117.344 -17.0177 116.511 -13.2841C116.088 -11.3914 116.608 -9.44386 117.428 -7.64165C119.059 -4.0566 121.566 -1.1175 124.388 1.54707C127.715 4.69287 131.403 7.39296 135.179 9.98001C136.381 10.8036 137.495 11.1492 138.745 10.2771C143.838 6.72117 148.86 3.07475 152.959 -1.66979C154.719 -3.70778 156.202 -5.91372 157.161 -8.45232C158.995 -13.3164 156.98 -17.4182 153.12 -19.7565C149.041 -22.2273 144.552 -21.2196 141.471 -18.3257C140.082 -17.0241 139.129 -15.2478 137.295 -14.4274" stroke="white" stroke-width="4" stroke-linecap="round" stroke-linejoin="round"/>
<path d="M27.9636 81.497C27.9636 71.5913 27.9636 61.6888 27.9572 51.783C27.9572 51.1371 27.8861 50.4879 27.7957 49.8452C27.6632 48.9053 27.2272 48.2626 26.1905 48.0494C25.0019 47.804 23.9006 47.0385 22.6377 47.2743C20.0151 47.7652 18.6037 49.5997 18.6005 52.429C18.594 59.9641 18.5908 67.5024 18.6102 75.0374C18.6102 75.8707 18.7039 76.8493 18.2323 77.4242C16.9242 79.0133 17.4927 80.6443 17.7898 82.3044C17.8964 82.8955 18.0127 83.4865 18.1096 84.0808C18.4842 86.3481 19.1915 86.8164 21.5008 87.0167C25.6802 87.3752 29.5656 88.554 32.4788 91.8387C34.0259 93.5828 34.8366 95.6305 35.1014 97.9656C35.2661 99.4222 35.4373 100.866 35.3921 102.329" stroke="white" stroke-width="4" stroke-linecap="round" stroke-linejoin="round"/>
<path d="M150.856 50.8142C149.742 49.5093 149.374 48.001 149.384 46.2925C149.429 38.9706 149.406 31.6519 149.4 24.33C149.4 22.3049 148.702 20.6158 146.813 19.6565C144.707 18.5875 142.672 19.3884 140.886 20.3703C139.83 20.9517 140.066 22.5181 140.053 23.684C140.011 27.8279 140.037 31.9749 140.037 36.1187V53.398" stroke="white" stroke-width="4" stroke-linecap="round" stroke-linejoin="round"/>
<path d="M77.5403 -20.5638C76.2 -21.1452 74.8693 -21.62 73.3416 -21.5586C70.719 -21.452 68.9911 -19.8178 68.9879 -17.1726C68.975 -9.58261 68.9588 -1.99263 69.004 5.59734C69.0137 7.30589 68.6455 8.8142 67.5312 10.119" stroke="white" stroke-width="4" stroke-linecap="round" stroke-linejoin="round"/>
<path d="M87.3911 12.7028C87.3911 3.60451 87.3879 -5.49054 87.3976 -14.5888C87.3976 -15.3414 87.2748 -16.2134 87.5946 -16.8271C88.4376 -18.4387 87.7916 -19.9115 87.3556 -21.3617C86.8194 -23.1445 85.6212 -24.5204 83.6737 -24.7271C81.7003 -24.937 79.9433 -24.4913 78.7935 -22.5244C78.1314 -21.394 77.3304 -20.4799 78.154 -19.0911C78.3671 -18.7326 78.1863 -18.1416 78.1863 -17.6571V12.5413" stroke="white" stroke-width="4" stroke-linecap="round" stroke-linejoin="round"/>
<path d="M140.683 20.2928C140.305 19.6469 139.956 18.9848 139.546 18.3582C138.419 16.6271 136.229 15.671 134.233 16.2912C132.495 16.8305 131.494 18.0126 130.877 19.9343C130.263 21.8464 130.838 23.5226 130.835 25.299C130.822 34.6104 130.829 43.9251 130.829 53.2366" stroke="white" stroke-width="4" stroke-linecap="round" stroke-linejoin="round"/>
<path d="M27.3174 48.3918C27.7469 47.6909 28.1442 46.9674 28.6158 46.2989C29.7849 44.6452 31.8423 43.7732 33.764 44.3933C35.5469 44.9682 36.5739 46.1309 37.1165 48.2012C37.9304 51.3082 36.7645 54.2506 37.0713 57.2833C37.1843 58.4073 37.1908 59.6411 37.1843 60.8264C37.1456 67.6638 37.165 74.498 37.165 81.3355" stroke="white" stroke-width="4" stroke-linecap="round" stroke-linejoin="round"/>
<path d="M88.3604 -18.9489C89.6426 -18.9134 90.7698 -19.6562 92.0746 -19.6143C94.652 -19.5335 96.5866 -17.7765 96.7578 -15.2347C96.761 -15.1798 96.7448 -15.1216 96.7578 -15.0732C97.8204 -12.0566 96.4445 -9.05934 96.7029 -6.02335C96.9516 -3.08426 96.7578 -0.106404 96.7578 2.8553V14.321" stroke="white" stroke-width="4" stroke-linecap="round" stroke-linejoin="round"/>
<path d="M130.024 22.0692C128.594 22.0531 127.302 21.3328 125.826 21.3845C123.536 21.4652 121.792 23.0898 121.63 25.4605C121.624 25.567 121.656 25.6833 121.624 25.7834C120.568 29.0132 121.911 32.2301 121.679 35.4792C121.443 38.7445 121.627 42.0421 121.627 45.3268V55.0161" stroke="white" stroke-width="4" stroke-linecap="round" stroke-linejoin="round"/>
<path d="M37.9756 50.1683C39.4387 50.0262 40.8049 49.3867 42.339 49.4965C44.5676 49.658 46.3084 51.3149 46.373 53.5596C46.373 53.6145 46.3601 53.6726 46.373 53.721C47.3904 57.0057 46.1082 60.2775 46.3246 63.5751C46.5377 66.7919 46.3698 70.0314 46.3698 73.2612V83.112" stroke="white" stroke-width="4" stroke-linecap="round" stroke-linejoin="round"/>
<path d="M94.4966 59.8576C94.7453 58.9597 94.9197 58.0522 94.8196 57.1123" stroke="white" stroke-width="4" stroke-linecap="round" stroke-linejoin="round"/>
</g>
<defs>
<clipPath id="clip0_219_1447">
<rect width="168" height="165.713" fill="white" transform="translate(0 -26.7134)"/>
</clipPath>
</defs>
</svg>
