<svg width="162" height="157" viewBox="0 0 162 157" fill="none" xmlns="http://www.w3.org/2000/svg">
<path d="M141.896 72.5053C141.627 69.9582 140.405 68.6167 137.662 68.205C133.6 67.5949 129.543 66.9444 125.463 66.4592C123.535 66.2313 122.07 65.5808 121.198 63.6916C119.43 59.8582 117.528 56.0835 115.682 52.2868C115.147 51.1842 114.508 50.2175 113.29 49.6993C110.919 48.6886 108.977 49.3244 107.582 51.9303C105.643 55.5579 103.716 59.2039 102.073 62.9676C101.013 65.4007 99.3962 66.2534 96.856 66.496C92.6506 66.8929 88.449 67.4993 84.3064 68.3226C80.6881 69.043 80.3484 73.3396 82.0837 75.0707C85.2774 78.261 88.4822 81.4439 91.6833 84.6268C93.9798 86.9129 93.9503 86.9056 93.3521 89.9562C92.5842 93.8705 91.8088 97.7848 91.1553 101.721C90.8341 103.643 91.2218 105.533 92.9977 106.646C94.5927 107.646 96.3132 107.385 97.9636 106.503C101.892 104.401 105.846 102.35 109.767 100.236C110.919 99.6152 111.953 99.6152 113.105 100.236C116.904 102.291 120.733 104.287 124.543 106.315C127.379 107.826 129.583 107.51 131.197 105.4C132.168 104.132 131.865 102.662 131.688 101.357C131.167 97.5386 130.421 93.7492 129.701 89.9598C129.31 87.909 129.269 86.1815 131.145 84.5753C134.139 82.0099 136.846 79.1063 139.685 76.3608C140.704 75.3758 141.782 74.4532 141.819 72.8655C141.826 72.5494 142.133 72.4428 142.45 72.4979" stroke="white" stroke-width="4" stroke-linecap="round" stroke-linejoin="round"/>
<path d="M124.544 125.615C124.606 125.431 124.418 125.472 124.378 125.417C121.907 122.384 118.573 121.995 114.944 122.083C111.381 122.171 107.811 122.186 104.237 121.987C101.903 121.859 99.9466 121.036 98.3626 119.518C95.7375 117.004 92.7395 115.879 89.1027 116.026C85.5398 116.169 81.9658 116.092 78.3955 116.048C73.6179 115.993 69.5897 117.643 66.204 121.01C58.9674 128.203 51.6865 135.348 44.4314 142.522C41.1602 145.756 37.9074 149.013 34.6436 152.258" stroke="white" stroke-width="4" stroke-linecap="round" stroke-linejoin="round"/>
<path d="M91.3142 134.436C100.297 134.436 109.284 134.44 118.267 134.436C121.734 134.436 124.403 131.999 124.3 128.559C124.226 126.155 125.681 125.2 127.276 123.921C133.94 118.569 140.486 113.071 147.051 107.591C147.686 107.062 148.302 106.588 149.093 106.312C152.205 105.239 154.956 106.084 156.831 108.903C158.389 111.248 158.227 113.784 156.285 116.416C155.879 116.967 155.314 117.404 154.819 117.893C144.544 128.122 134.221 138.306 124.019 148.612C121.051 151.611 117.606 153.001 113.467 152.997C101.837 152.99 90.2065 152.997 78.5762 152.99C78.4544 152.99 78.3289 152.931 78.207 152.901" stroke="white" stroke-width="4" stroke-linecap="round" stroke-linejoin="round"/>
<path d="M78.5762 85.553C78.5762 90.5773 78.4728 95.6016 78.6205 100.622C78.6907 103.055 76.9665 105.132 73.5918 104.944C71.683 104.838 69.7852 104.853 67.8653 104.985C65.8494 105.125 63.8003 105.011 61.777 104.974C53.2223 104.812 44.6676 104.9 36.1165 104.853C36.0538 104.853 35.9799 104.831 35.9356 104.853C33.8016 106.146 31.7414 104.889 29.659 104.654C27.7243 104.437 26.5539 103.114 26.5243 101.174C26.4911 98.9425 26.7237 96.6858 25.7822 94.5578" stroke="white" stroke-width="4" stroke-linecap="round" stroke-linejoin="round"/>
<path d="M25.4096 62.2141C23.3014 62.0854 21.939 63.4821 20.4178 64.5958C16.6813 67.3376 12.6532 69.7193 9.71426 73.4241C6.46148 77.5259 4.56002 82.0908 4.32742 87.3907C4.08005 92.97 4.02097 98.5566 4.30157 104.11C4.42341 106.477 4.77048 108.771 4.17604 111.101" stroke="white" stroke-width="4" stroke-linecap="round" stroke-linejoin="round"/>
<path d="M69.161 23.4384C69.2496 22.1851 68.7955 21.0788 68.0423 20.1379C64.376 15.584 60.658 11.0706 56.9806 6.52778C54.2632 3.16844 50.8147 3.14639 48.1084 6.52778C44.5085 11.0228 40.8274 15.4554 37.2461 19.9651C36.4707 20.9428 35.7618 22.0564 35.9317 23.4384" stroke="white" stroke-width="4" stroke-linecap="round" stroke-linejoin="round"/>
<path d="M26.7012 93.6392H69.5301" stroke="white" stroke-width="4" stroke-linecap="round" stroke-linejoin="round"/>
<path d="M78.6687 59.6414C78.6392 56.396 78.5949 53.147 78.5801 49.9016C78.5321 41.4297 76.2024 33.5717 72.0967 26.2061C71.6795 25.4564 71.0925 24.7433 70.4279 24.2067C69.9036 23.7877 69.2907 23.3173 68.3935 23.9458C67.5295 24.5485 66.385 24.5596 65.2884 24.5559C56.7965 24.5302 48.3045 24.5449 39.8126 24.5338C39.0742 24.5338 38.2582 24.6 37.6121 24.3243C35.0239 23.2254 34.363 24.0634 33.3883 25.6659C29.9176 31.3738 27.8316 37.6073 26.9048 44.2083C26.255 48.8431 26.8901 53.5476 26.4027 58.1602C26.1184 60.8617 26.4138 63.4345 26.4618 66.0771C26.6205 74.7731 26.5061 83.4728 26.5393 92.1726C26.543 93.5325 26.3843 94.3852 24.6859 94.6241C22.6773 94.9071 21.2596 96.5132 19.7052 97.7041C16.0942 100.468 12.5609 103.331 8.97947 106.135C7.90506 106.977 6.63865 107.411 5.29102 107.613" stroke="white" stroke-width="4" stroke-linecap="round" stroke-linejoin="round"/>
<path d="M33.3473 105.952C33.3178 109.215 34.2999 112.329 34.839 115.504C35.0753 116.904 36.1091 117.187 37.4087 117.176C43.1315 117.136 48.8543 117.158 54.5772 117.158" stroke="white" stroke-width="4" stroke-linecap="round" stroke-linejoin="round"/>
<path d="M36.3931 126.534C36.6072 130.397 36.4854 134.252 36.3008 138.112" stroke="white" stroke-width="4" stroke-linecap="round" stroke-linejoin="round"/>
<path d="M51.0693 41.8156C47.8608 42.4698 45.0474 43.8445 42.9503 46.4136C37.3604 53.2719 40.6538 63.0522 48.2928 65.7205C55.6291 68.2786 63.2645 64.3276 64.8115 56.3152C65.6422 52.0076 64.265 47.983 60.6873 44.9177C57.9293 42.5507 54.7799 41.6907 51.2502 41.8193" stroke="white" stroke-width="4" stroke-linecap="round" stroke-linejoin="round"/>
</svg>
