<svg width="40" height="41" viewBox="0 0 40 41" fill="none" xmlns="http://www.w3.org/2000/svg">
<path d="M32.1934 22.6174V31.5137H26.9859V23.1599C26.9859 21.0986 26.2264 19.6882 24.3821 19.6882C22.9717 19.6882 22.1038 20.6646 21.7783 21.5325C21.6698 21.858 21.5613 22.292 21.5613 22.8344V31.5137H16.3538C16.3538 31.5137 16.4623 17.4099 16.3538 15.9995H21.5613V18.1693C22.2123 17.0844 23.5141 15.5656 26.2264 15.5656C29.5896 15.5656 32.1934 17.8439 32.1934 22.6174ZM10.9292 8.51367C9.19339 8.51367 8 9.70707 8 11.2259C8 12.7448 9.0849 13.9382 10.8208 13.9382C12.6651 13.9382 13.75 12.7448 13.75 11.2259C13.8585 9.59858 12.7736 8.51367 10.9292 8.51367ZM8.32547 31.5137H13.533V15.9995H8.32547V31.5137Z" fill="white"/>
</svg>
