<svg width="41" height="41" viewBox="0 0 41 41" fill="none" xmlns="http://www.w3.org/2000/svg">
<path d="M32.7998 14.706C31.9784 15.0521 31.0396 15.2829 30.1008 15.3983C31.0396 14.8214 31.861 13.8983 32.2131 12.8598C31.2743 13.4368 30.3355 13.7829 29.1621 14.0137C28.3406 13.0906 27.0498 12.5137 25.759 12.5137C23.1774 12.5137 21.0651 14.5906 21.0651 17.1291C21.0651 17.4752 21.0651 17.8214 21.1825 18.1675C17.31 17.9367 13.7896 16.0906 11.4427 13.3214C11.0906 14.0137 10.8559 14.8214 10.8559 15.6291C10.8559 17.2444 11.6774 18.6291 12.9682 19.4367C12.1467 19.4367 11.4427 19.206 10.8559 18.8598C10.8559 21.0521 12.4988 23.0137 14.611 23.3598C14.259 23.4752 13.7896 23.4752 13.3202 23.4752C12.9682 23.4752 12.7335 23.4752 12.3814 23.3598C12.9682 25.206 14.7284 26.5906 16.8406 26.5906C15.1978 27.8598 13.2029 28.5521 10.9733 28.5521C10.6212 28.5521 10.2692 28.5521 9.7998 28.4367C11.9121 29.706 14.3763 30.5137 17.0753 30.5137C25.759 30.5137 30.4529 23.4752 30.4529 17.3598V16.7829C31.3916 16.4367 32.2131 15.629 32.7998 14.706Z" fill="white"/>
</svg>
